# xmcd CD database file
#
# Track frame offsets:
#	150
#	18823
#	36901
#	55831
#	72538
#	88336
#	109765
#	128237
#	146838
#	165750
#	182807
#	204413
#	221589
#	241724
#	258343
#	278992
#	301542
#
# Disc length: 4337 seconds
#
# Revision: 0
# Processed by: cddbd v1.5.2PL0 Copyright (c) Steve Scherf et al.
# Submitted via: CDex 1.70beta2
#
DISCID=ed10ef11
DTITLE=Hello!Project - ハロー!プロジェクトの全曲から集めちゃいました! Vol.1 アイドル三十六房編(南波一海×嶺脇育夫)
DYEAR=2014
DGENRE=Hello!Project
TTITLE0=笑顔YESヌード(ALBUM MIX) - モーニング娘。
TTITLE1=気まぐれ - 後藤真希
TTITLE2=センチメンタル南向き - タンポポ
TTITLE3=図書室待機 - Berryz工房 
TTITLE4=愛されたい 愛されたい - 音楽ガッタス
TTITLE5=ポップコーンラブ! - モーニング娘。
TTITLE6=Bye Bye Bye! - ℃-ute
TTITLE7=秋麗 - モーニング娘。
TTITLE8=秘密のウ・タ・ヒ・メ - Berryz工房
TTITLE9=PARTY TIME - ガーディアンズ4
TTITLE10=寝坊です。デートなのに・・・ - モーニング娘。
TTITLE11=デビュー!～恋する角には福来る～ - アイスクリー娘。
TTITLE12=宇宙でLa ta ta - 太陽とシスコムーン
TTITLE13=Let's Do 大発見! - 藤本美貴
TTITLE14=告白記念日 - メロン記念日
TTITLE15=ロマンスの途中 - Juice=Juice
TTITLE16=The 摩天楼ショー(TYPE 0) - モーニング娘。
EXTD=YEAR: 2014
EXTT0=
EXTT1=
EXTT2=
EXTT3=
EXTT4=
EXTT5=
EXTT6=
EXTT7=
EXTT8=
EXTT9=
EXTT10=
EXTT11=
EXTT12=
EXTT13=
EXTT14=
EXTT15=
EXTT16=
PLAYORDER=
